<svg id="visual" viewBox="0 0 960 540" width="960" height="540" xmlns="http://www.w3.org/2000/svg" xmlns:xlink="http://www.w3.org/1999/xlink" version="1.1"><path d="M0 50L14.5 60.7C29 71.3 58 92.7 87.2 91.7C116.3 90.7 145.7 67.3 174.8 55.7C204 44 233 44 262 54.8C291 65.7 320 87.3 349 96.3C378 105.3 407 101.7 436.2 100.8C465.3 100 494.7 102 523.8 94.8C553 87.7 582 71.3 611 64C640 56.7 669 58.3 698 59.2C727 60 756 60 785.2 67.3C814.3 74.7 843.7 89.3 872.8 94.8C902 100.3 931 96.7 945.5 94.8L960 93L960 0L945.5 0C931 0 902 0 872.8 0C843.7 0 814.3 0 785.2 0C756 0 727 0 698 0C669 0 640 0 611 0C582 0 553 0 523.8 0C494.7 0 465.3 0 436.2 0C407 0 378 0 349 0C320 0 291 0 262 0C233 0 204 0 174.8 0C145.7 0 116.3 0 87.2 0C58 0 29 0 14.5 0L0 0Z" fill="#b6326f"></path><path d="M0 109L14.5 117.2C29 125.3 58 141.7 87.2 137.2C116.3 132.7 145.7 107.3 174.8 100C204 92.7 233 103.3 262 122.2C291 141 320 168 349 176.2C378 184.3 407 173.7 436.2 164.7C465.3 155.7 494.7 148.3 523.8 140.2C553 132 582 123 611 123C640 123 669 132 698 128.5C727 125 756 109 785.2 117.2C814.3 125.3 843.7 157.7 872.8 164.8C902 172 931 154 945.5 145L960 136L960 91L945.5 92.8C931 94.7 902 98.3 872.8 92.8C843.7 87.3 814.3 72.7 785.2 65.3C756 58 727 58 698 57.2C669 56.3 640 54.7 611 62C582 69.3 553 85.7 523.8 92.8C494.7 100 465.3 98 436.2 98.8C407 99.7 378 103.3 349 94.3C320 85.3 291 63.7 262 52.8C233 42 204 42 174.8 53.7C145.7 65.3 116.3 88.7 87.2 89.7C58 90.7 29 69.3 14.5 58.7L0 48Z" fill="#a31e5d"></path><path d="M0 239L14.5 243.5C29 248 58 257 87.2 246.2C116.3 235.3 145.7 204.7 174.8 206.3C204 208 233 242 262 272.5C291 303 320 330 349 333.7C378 337.3 407 317.7 436.2 295.2C465.3 272.7 494.7 247.3 523.8 233.8C553 220.3 582 218.7 611 222.3C640 226 669 235 698 252.2C727 269.3 756 294.7 785.2 301.8C814.3 309 843.7 298 872.8 297C902 296 931 305 945.5 309.5L960 314L960 134L945.5 143C931 152 902 170 872.8 162.8C843.7 155.7 814.3 123.3 785.2 115.2C756 107 727 123 698 126.5C669 130 640 121 611 121C582 121 553 130 523.8 138.2C494.7 146.3 465.3 153.7 436.2 162.7C407 171.7 378 182.3 349 174.2C320 166 291 139 262 120.2C233 101.3 204 90.7 174.8 98C145.7 105.3 116.3 130.7 87.2 135.2C58 139.7 29 123.3 14.5 115.2L0 107Z" fill="#91004b"></path><path d="M0 465L14.5 459.7C29 454.3 58 443.7 87.2 432C116.3 420.3 145.7 407.7 174.8 407.7C204 407.7 233 420.3 262 435.7C291 451 320 469 349 465.3C378 461.7 407 436.3 436.2 427.3C465.3 418.3 494.7 425.7 523.8 427.5C553 429.3 582 425.7 611 434.7C640 443.7 669 465.3 698 470.8C727 476.3 756 465.7 785.2 462C814.3 458.3 843.7 461.7 872.8 451.7C902 441.7 931 418.3 945.5 406.7L960 395L960 312L945.5 307.5C931 303 902 294 872.8 295C843.7 296 814.3 307 785.2 299.8C756 292.7 727 267.3 698 250.2C669 233 640 224 611 220.3C582 216.7 553 218.3 523.8 231.8C494.7 245.3 465.3 270.7 436.2 293.2C407 315.7 378 335.3 349 331.7C320 328 291 301 262 270.5C233 240 204 206 174.8 204.3C145.7 202.7 116.3 233.3 87.2 244.2C58 255 29 246 14.5 241.5L0 237Z" fill="#7d0442"></path><path d="M0 541L14.5 541C29 541 58 541 87.2 541C116.3 541 145.7 541 174.8 541C204 541 233 541 262 541C291 541 320 541 349 541C378 541 407 541 436.2 541C465.3 541 494.7 541 523.8 541C553 541 582 541 611 541C640 541 669 541 698 541C727 541 756 541 785.2 541C814.3 541 843.7 541 872.8 541C902 541 931 541 945.5 541L960 541L960 393L945.5 404.7C931 416.3 902 439.7 872.8 449.7C843.7 459.7 814.3 456.3 785.2 460C756 463.7 727 474.3 698 468.8C669 463.3 640 441.7 611 432.7C582 423.7 553 427.3 523.8 425.5C494.7 423.7 465.3 416.3 436.2 425.3C407 434.3 378 459.7 349 463.3C320 467 291 449 262 433.7C233 418.3 204 405.7 174.8 405.7C145.7 405.7 116.3 418.3 87.2 430C58 441.7 29 452.3 14.5 457.7L0 463Z" fill="#690639"></path></svg>